<svg xmlns="http://www.w3.org/2000/svg" viewBox="0 0 1200 630" width="1200" height="630">
  <defs>
    <linearGradient id="bg1" x1="0%" y1="0%" x2="100%" y2="100%">
      <stop offset="0%" stop-color="#0f172a"/>
      <stop offset="100%" stop-color="#1e3a5f"/>
    </linearGradient>
    <linearGradient id="glow1" x1="0%" y1="0%" x2="100%" y2="100%">
      <stop offset="0%" stop-color="#3b82f6" stop-opacity="0.3"/>
      <stop offset="100%" stop-color="#60a5fa" stop-opacity="0.1"/>
    </linearGradient>
  </defs>
  <!-- Background -->
  <rect width="1200" height="630" fill="url(#bg1)"/>
  <!-- Grid pattern -->
  <g opacity="0.06" stroke="#60a5fa" stroke-width="1">
    <line x1="0" y1="0" x2="1200" y2="630"/>
    <line x1="200" y1="0" x2="1200" y2="525"/>
    <line x1="400" y1="0" x2="1200" y2="420"/>
    <line x1="600" y1="0" x2="1200" y2="315"/>
    <line x1="800" y1="0" x2="1200" y2="210"/>
    <line x1="1000" y1="0" x2="1200" y2="105"/>
    <line x1="0" y1="105" x2="200" y2="0"/>
    <line x1="0" y1="210" x2="400" y2="0"/>
    <line x1="0" y1="315" x2="600" y2="0"/>
    <line x1="0" y1="420" x2="800" y2="0"/>
    <line x1="0" y1="525" x2="1000" y2="0"/>
  </g>
  <!-- Circuit nodes -->
  <g fill="none" stroke="#3b82f6" stroke-width="2" opacity="0.4">
    <circle cx="200" cy="150" r="8"/>
    <circle cx="400" cy="100" r="6"/>
    <circle cx="600" cy="200" r="10"/>
    <circle cx="800" cy="130" r="7"/>
    <circle cx="1000" cy="180" r="9"/>
    <circle cx="300" cy="350" r="7"/>
    <circle cx="500" cy="400" r="8"/>
    <circle cx="700" cy="380" r="6"/>
    <circle cx="900" cy="420" r="10"/>
    <line x1="200" y1="150" x2="400" y2="100"/>
    <line x1="400" y1="100" x2="600" y2="200"/>
    <line x1="600" y1="200" x2="800" y2="130"/>
    <line x1="800" y1="130" x2="1000" y2="180"/>
    <line x1="300" y1="350" x2="500" y2="400"/>
    <line x1="500" y1="400" x2="700" y2="380"/>
    <line x1="700" y1="380" x2="900" y2="420"/>
    <line x1="400" y1="100" x2="300" y2="350"/>
    <line x1="600" y1="200" x2="500" y2="400"/>
    <line x1="800" y1="130" x2="700" y2="380"/>
  </g>
  <!-- Central brain icon -->
  <g transform="translate(600,315)" fill="none" stroke="#60a5fa" stroke-width="3" opacity="0.8">
    <path d="M-60,-50 C-60,-80 -30,-90 0,-80 C30,-90 60,-80 60,-50 C70,-40 70,-10 50,10 C60,30 50,60 30,70 C20,80 0,85 0,85 C0,85 -20,80 -30,70 C-50,60 -60,30 -50,10 C-70,-10 -70,-40 -60,-50Z"/>
    <path d="M-10,-70 C-10,-30 -5,0 -10,30"/>
    <path d="M10,-70 C10,-30 5,0 10,30"/>
    <path d="M-40,-40 C-20,-20 20,-20 40,-40"/>
    <path d="M-35,-10 C-15,5 15,5 35,-10"/>
    <path d="M-30,20 C-10,35 10,35 30,20"/>
  </g>
  <!-- Glow overlay -->
  <rect width="1200" height="630" fill="url(#glow1)"/>
  <!-- Corner accents -->
  <rect x="40" y="40" width="60" height="3" rx="1.5" fill="#3b82f6" opacity="0.6"/>
  <rect x="40" y="40" width="3" height="60" rx="1.5" fill="#3b82f6" opacity="0.6"/>
  <rect x="1100" y="587" width="60" height="3" rx="1.5" fill="#3b82f6" opacity="0.6"/>
  <rect x="1157" y="530" width="3" height="60" rx="1.5" fill="#3b82f6" opacity="0.6"/>
</svg>